<svg width="10" height="9" viewBox="0 0 10 9" fill="none" xmlns="http://www.w3.org/2000/svg">
<path d="M3.53064 1.25981C3.93531 0.259481 5.35103 0.259481 5.7557 1.25981C6.07364 2.04597 6.81242 2.58257 7.65835 2.64201C8.73467 2.7179 9.17234 4.06468 8.34597 4.7586C7.69653 5.30391 7.41466 6.17172 7.61954 6.99461C7.88008 8.04177 6.73376 8.87473 5.81839 8.30318C5.09908 7.85404 4.18726 7.85404 3.46795 8.30318C2.55258 8.87473 1.40626 8.04177 1.6668 6.99461C1.87168 6.17171 1.58981 5.30391 0.940376 4.7586C0.114002 4.06468 0.551676 2.7179 1.628 2.64201C2.47393 2.58257 3.21271 2.04597 3.53064 1.25981Z" fill="#FDC350" stroke="#EDEDED"/>
</svg>
