<svg width="16" height="16" viewBox="0 0 16 16" fill="none" xmlns="http://www.w3.org/2000/svg">
<path d="M5.44428 2.23654C6.37348 -0.0611112 9.62652 -0.0611115 10.5557 2.23654C10.9506 3.21305 11.8675 3.87917 12.9182 3.953C15.3906 4.12671 16.3958 7.22053 14.4977 8.81427C13.6911 9.49161 13.3409 10.5694 13.5953 11.5916C14.1941 13.9966 11.5624 15.9087 9.46011 14.596C8.56664 14.0381 7.43336 14.0381 6.53989 14.596C4.43763 15.9087 1.80586 13.9966 2.40465 11.5916C2.65914 10.5694 2.30893 9.49161 1.50225 8.81427C-0.395802 7.22053 0.609443 4.12671 3.08178 3.953C4.13253 3.87917 5.04936 3.21305 5.44428 2.23654Z" fill="#FDC350" stroke="white"/>
</svg>
