<svg width="79" height="50" viewBox="0 0 79 50" fill="none" xmlns="http://www.w3.org/2000/svg">
<path fill-rule="evenodd" clip-rule="evenodd" d="M70.3308 45.5866C73.2486 45.5866 73.2501 50 70.3308 50H66.22C63.3002 50 63.3017 45.5866 66.22 45.5866H70.3308ZM67.5125 19.1042C66.2935 19.1042 65.3055 20.0926 65.3055 21.3117C65.3055 22.5297 66.2935 23.5176 67.5125 23.5176C68.7311 23.5176 69.7195 22.5297 69.7195 21.3117C69.7195 20.0926 68.7316 19.1042 67.5125 19.1042ZM76.0086 36.7593C74.7901 36.7593 73.8012 37.7472 73.8012 38.9658C73.8012 40.1848 74.7901 41.1737 76.0086 41.1737C77.2277 41.1737 78.2151 40.1848 78.2151 38.9658C78.2151 37.7472 77.2272 36.7593 76.0086 36.7593ZM30.9659 45.233C36.3095 44.4247 40.5106 40.1389 41.1898 34.7555C35.1798 34.7549 31.74 39.4755 30.9659 45.233ZM17.0797 34.7549C17.7589 40.1384 21.9605 44.4242 27.3041 45.2325C26.5295 39.475 23.0908 34.7549 17.0797 34.7549ZM29.135 21.0673C24.8987 21.0673 21.1681 23.2359 18.9943 26.5237C18.6794 27.1038 18.6488 27.7912 18.9009 28.3913L19.1749 28.8658C20.4567 30.5513 22.3596 28.9016 24.1251 28.351C25.5697 27.8999 27.2924 27.5463 29.1345 27.5529C30.9761 27.5463 32.6993 27.8999 34.1434 28.351C35.9095 28.9016 37.8113 30.5513 39.0941 28.8658L39.3681 28.3913C39.6202 27.7912 39.5896 27.1038 39.2748 26.5237C37.1015 23.2359 33.3719 21.0673 29.135 21.0673ZM44.6653 25.8399C43.1871 23.237 37.8057 13.9075 36.2059 11.3924C34.0368 7.8133 32.8157 5.96201 32.2477 5.18996C31.219 3.7918 29.6428 4.21074 28.61 4.80675C27.4215 5.49205 26.4622 6.45035 26.8903 7.19127L31.3308 14.8827C31.6119 15.3685 30.8741 15.7961 30.5924 15.3093L25.1023 5.79924C24.5369 5.28896 22.7729 4.48986 20.7323 5.76556C19.1382 6.76111 19.0305 7.67042 19.6194 8.69098L24.1588 16.5549C24.44 17.0401 23.7016 17.4678 23.4214 16.981L17.9987 7.58929C17.2364 6.65293 15.7458 6.45647 13.9073 7.44437C12.3535 8.2797 12.055 9.34362 12.5479 10.1973L17.4068 18.6149C17.6875 19.1001 16.9501 19.5272 16.6695 19.0409L6.69862 1.77263C5.74083 0.113211 4.26409 -0.65629 1.94131 0.68523C-0.381479 2.02573 -0.29065 3.54738 0.51814 4.94809L12.3214 25.3919C12.4392 25.6291 12.404 25.918 12.2265 26.1221C12.03 26.3466 11.708 26.4124 11.4396 26.2833C10.3405 25.7358 8.9418 25.0729 7.65845 24.5688C6.0618 24.0784 4.37482 24.3381 3.02871 25.1949C1.16925 26.3767 0.33189 28.6699 2.71132 29.867C7.85798 32.4561 14.191 41.5947 17.5099 45.0289C23.3128 50.8629 32.4773 51.6564 39.1957 46.9077C45.9165 42.1601 48.2271 33.2563 44.6653 25.8399Z" fill="#0095FE"/>
</svg>
